<svg id="Group_20" data-name="Group 20" xmlns="http://www.w3.org/2000/svg" xmlns:xlink="http://www.w3.org/1999/xlink" width="527.587" height="206.76" viewBox="0 0 527.587 206.76">
  <defs>
    <clipPath id="clip-path">
      <rect id="Rectangle_34" data-name="Rectangle 34" width="527.587" height="206.76" fill="none"/>
    </clipPath>
  </defs>
  <g id="Group_19" data-name="Group 19" clip-path="url(#clip-path)">
    <path id="Path_270" data-name="Path 270" d="M73.422,160.561a31.281,31.281,0,0,1-7.822,1.054c-11.337,0-16.494-3.779-16.494-14.709v-51.3H73.54V71.756H49.105V37.77l-4.071,2.345-.118.056L16.289,56.637V71.756H0v23.85H16.289v56.663c0,23.676,15.119,34.807,36.568,34.807,7.558,0,16.32-1.2,22.267-3.194V160.036C74.625,160.21,74.069,160.387,73.422,160.561Z" transform="translate(0 -26.022)" fill="#e6edff"/>
    <rect id="Rectangle_33" data-name="Rectangle 33" width="33.812" height="111.535" transform="translate(89.244 47.528)" fill="#e6edff"/>
    <path id="Path_271" data-name="Path 271" d="M547.662,203.488c-3.692-5.95-9.729-10.432-18.049-14.183h-.028a122.3,122.3,0,0,0-14.973-5.331c-.967-.292-1.963-.557-2.958-.849-13.508-3.751-18.08-7.151-18.08-13.1a9.642,9.642,0,0,1,1.291-5.126,8.813,8.813,0,0,1,6.27-3.956,17.58,17.58,0,0,1,3.163-.264c8.967,0,16.32,6.152,19.1,16.876l2.725-.849,22.267-13.947v-.031a36.443,36.443,0,0,0-19.688-19.1,58.583,58.583,0,0,0-23-4.221c-26.661,0-43.743,14.914-43.743,36.77a37.015,37.015,0,0,0,.967,8.762c2.168,9.141,8.174,15.234,18.341,19.953a85.627,85.627,0,0,0,10.9,4.1c1.406.439,2.784.877,4.074,1.288,12.656,3.984,19.893,6.827,22.736,11.25a9.159,9.159,0,0,1,1.434,5.129c0,5.185-3.984,8.964-11.748,8.964a19.576,19.576,0,0,1-8.908-2.05c-5.421-2.606-10.255-7.941-14.385-16.494L465.3,229.711l-5.421,3.4c8.995,16.908,24.963,24.378,45.208,24.378,29.038,0,46.938-14.124,46.938-36.975v-.059C552.026,213.684,550.561,208.144,547.662,203.488Z" transform="translate(-316.844 -96.049)" fill="#e6edff"/>
    <path id="Path_272" data-name="Path 272" d="M891.246,119.45,874.9,94.72l44.123-46.527H878.267l-8.174,10.93-.031.028L859.78,72.833A174.55,174.55,0,0,0,845.774,94.1c-1.288,2.373-2.4,4.659-3.487,6.973h-1c.352-1.58.675-3.163,1-4.774v-.031a121.172,121.172,0,0,0,1.963-20.92c.031-.877.031-1.757.031-2.694V3.57L810.5,24.785V161.523h33.781v-34.6l8.351-8.731L863.7,136.734l1.437,2.432,13.331,22.357h40.549L892.8,121.792Z" transform="translate(-558.411 -2.46)" fill="#e6edff"/>
    <path id="Path_273" data-name="Path 273" d="M1226.79,137.176c-5.978,0-7.969-3.163-7.969-9.346V0h-.47L1185.04,20.917V133.4c0,21.477,12.92,27.657,30,27.657a55.308,55.308,0,0,0,15.116-1.991v-22.27a11.426,11.426,0,0,1-3.368.383" transform="translate(-816.458)" fill="#e6edff"/>
    <path id="Path_274" data-name="Path 274" d="M1411.2,173.532l-7.275,23.788a294.852,294.852,0,0,0-7.941,36.185h-1.2c-1.58-13.508-3.163-23.06-7.147-36.39l-15.119-48.723-28.8,18.105,38.558,94.052-3.26,9.43-.314.911c-3.194,9.346-6.563,13.71-11.34,13.71a8.427,8.427,0,0,1-6.3-2.613l-21.614,14.457c8.105,8.466,16.438,11.8,29.3,11.8,22.882,0,32.4-13.3,39.171-33.781L1450.422,147.3Z" transform="translate(-922.835 -101.485)" fill="#e6edff"/>
    <path id="Path_275" data-name="Path 275" d="M305.88,4.46a17.01,17.01,0,1,1-17.01,17.01A17.01,17.01,0,0,1,305.88,4.46" transform="translate(-199.023 -3.073)" fill="#fcee21"/>
    <path id="Path_276" data-name="Path 276" d="M328.145,125.68c.51.1,1.03.171,1.555.221-.51.047-1.03.072-1.555.072s-1.045-.025-1.555-.072c.526-.05,1.045-.124,1.555-.221" transform="translate(-225.011 -86.59)" fill="#fcee21"/>
    <path id="Path_277" data-name="Path 277" d="M290.06,21.24a17.01,17.01,0,1,1-17.01,17.01,17.01,17.01,0,0,1,17.01-17.01" transform="translate(-188.123 -14.634)" fill="#4bffff"/>
    <path id="Path_278" data-name="Path 278" d="M311.573,26.11a16.737,16.737,0,0,1,4.8,9.769,16.469,16.469,0,0,1-2.88,11.62,16.469,16.469,0,0,1-11.62,2.88,16.773,16.773,0,0,1-11.685-26.186,16.683,16.683,0,0,1,21.389,1.916" transform="translate(-197.855 -14.595)" fill="#00ff85"/>
    <path id="Path_279" data-name="Path 279" d="M317.15,21.24a17.01,17.01,0,1,1-17.01,17.01,17.01,17.01,0,0,1,17.01-17.01" transform="translate(-206.788 -14.634)" fill="#f0f"/>
    <path id="Path_280" data-name="Path 280" d="M324.3,39.351a16.768,16.768,0,0,1-3.515,10.3,16.469,16.469,0,0,1-10.255,6.18,16.469,16.469,0,0,1-10.255-6.18A16.779,16.779,0,0,1,310.529,22.87,16.685,16.685,0,0,1,324.3,39.351" transform="translate(-204.459 -15.757)" fill="#5046e6"/>
  </g>
</svg>
